<svg width="32" height="32" viewBox="30 80 425 420" fill="none" xmlns="http://www.w3.org/2000/svg">
  <style>
    .outer { stroke: #1A2744; }
    .inner1 { stroke: #2563EB; }
    .inner2 { stroke: #3B82F6; }
    .s-path { fill: #1A2744; }
    @media (prefers-color-scheme: dark) {
      .outer { stroke: #ffffff; }
      .inner1 { stroke: #93c5fd; }
      .inner2 { stroke: #93c5fd; }
      .s-path { fill: #ffffff; }
    }
  </style>
  <!-- Outer brackets -->
  <path class="outer" d="M39 200V110.4C39 95.4667 46.4667 88 61.4 88H151" stroke-width="8.4" stroke-linecap="round"/>
  <path class="outer" d="M335 491H424.6C439.533 491 447 483.533 447 468.6V379" stroke-width="8.4" stroke-linecap="round"/>
  <!-- Inner brackets -->
  <path class="inner1" d="M72.6 200V144C72.6 129.067 80.0666 121.6 95 121.6H151" stroke-width="5.6" stroke-linecap="round"/>
  <path class="inner2" d="M335 457.4H391C405.933 457.4 413.4 449.933 413.4 435V379" stroke-width="5.6" stroke-linecap="round"/>
  <!-- S -->
  <path class="s-path" d="M232.536 382.203C215.646 382.203 201.086 379.485 188.856 374.05C176.82 368.42 165.754 359.975 155.659 348.715L185.362 319.304C191.962 326.875 199.242 332.796 207.202 337.067C215.355 341.144 224.771 343.182 235.448 343.182C245.155 343.182 252.629 341.435 257.87 337.941C263.306 334.446 266.024 329.593 266.024 323.381C266.024 317.751 264.277 313.189 260.782 309.694C257.288 306.2 252.629 303.191 246.805 300.667C241.175 298.143 234.866 295.717 227.877 293.387C221.082 291.058 214.287 288.437 207.493 285.525C200.698 282.419 194.389 278.633 188.565 274.168C182.935 269.509 178.373 263.782 174.878 256.987C171.384 249.998 169.637 241.262 169.637 230.779C169.637 218.161 172.646 207.289 178.664 198.165C184.876 189.041 193.418 182.149 204.29 177.49C215.161 172.636 227.683 170.21 241.854 170.21C256.22 170.21 269.324 172.733 281.166 177.781C293.203 182.828 303.103 189.72 310.869 198.456L281.166 227.867C274.954 221.461 268.645 216.705 262.238 213.598C256.026 210.492 248.94 208.939 240.981 208.939C233.021 208.939 226.712 210.492 222.053 213.598C217.394 216.51 215.064 220.781 215.064 226.411C215.064 231.653 216.811 235.924 220.306 239.224C223.8 242.33 228.362 245.048 233.992 247.378C239.816 249.707 246.125 252.037 252.92 254.366C259.909 256.696 266.801 259.414 273.595 262.52C280.39 265.626 286.602 269.606 292.232 274.459C298.056 279.118 302.715 285.137 306.21 292.514C309.704 299.697 311.451 308.627 311.451 319.304C311.451 338.911 304.462 354.345 290.485 365.605C276.507 376.67 257.191 382.203 232.536 382.203Z"/>
</svg>
