<svg width="1332" height="418" viewBox="34 83 1332 418" fill="none" xmlns="http://www.w3.org/2000/svg">

<path d="M39 200V110.4C39 95.4667 46.4667 88 61.4 88H151" stroke="#1A2744" stroke-width="8.4" stroke-linecap="round"/>
<path d="M335 491H424.6C439.533 491 447 483.533 447 468.6V379" stroke="#1A2744" stroke-width="8.4" stroke-linecap="round"/>
<path d="M72.6 200V144C72.6 129.067 80.0666 121.6 95 121.6H151" stroke="#2563EB" stroke-width="5.6" stroke-linecap="round"/>
<path d="M335 457.4H391C405.933 457.4 413.4 449.933 413.4 435V379" stroke="#3B82F6" stroke-width="5.6" stroke-linecap="round"/>
<path d="M232.536 382.203C215.646 382.203 201.086 379.485 188.856 374.05C176.82 368.42 165.754 359.975 155.659 348.715L185.362 319.304C191.962 326.875 199.242 332.796 207.202 337.067C215.355 341.144 224.771 343.182 235.448 343.182C245.155 343.182 252.629 341.435 257.87 337.941C263.306 334.446 266.024 329.593 266.024 323.381C266.024 317.751 264.277 313.189 260.782 309.694C257.288 306.2 252.629 303.191 246.805 300.667C241.175 298.143 234.866 295.717 227.877 293.387C221.082 291.058 214.287 288.437 207.493 285.525C200.698 282.419 194.389 278.633 188.565 274.168C182.935 269.509 178.373 263.782 174.878 256.987C171.384 249.998 169.637 241.262 169.637 230.779C169.637 218.161 172.646 207.289 178.664 198.165C184.876 189.041 193.418 182.149 204.29 177.49C215.161 172.636 227.683 170.21 241.854 170.21C256.22 170.21 269.324 172.733 281.166 177.781C293.203 182.828 303.103 189.72 310.869 198.456L281.166 227.867C274.954 221.461 268.645 216.705 262.238 213.598C256.026 210.492 248.94 208.939 240.981 208.939C233.021 208.939 226.712 210.492 222.053 213.598C217.394 216.51 215.064 220.781 215.064 226.411C215.064 231.653 216.811 235.924 220.306 239.224C223.8 242.33 228.362 245.048 233.992 247.378C239.816 249.707 246.125 252.037 252.92 254.366C259.909 256.696 266.801 259.414 273.595 262.52C280.39 265.626 286.602 269.606 292.232 274.459C298.056 279.118 302.715 285.137 306.21 292.514C309.704 299.697 311.451 308.627 311.451 319.304C311.451 338.911 304.462 354.345 290.485 365.605C276.507 376.67 257.191 382.203 232.536 382.203Z" fill="#1A2744"/>
<path d="M332.754 240.637L361.588 210.845C363.361 209.071 364.78 207.44 365.844 205.95C366.908 204.461 367.688 203.078 368.185 201.801C368.681 200.453 368.93 199.105 368.93 197.758C368.93 194.849 367.972 192.579 366.057 190.948C364.212 189.246 361.765 188.394 358.715 188.394C355.736 188.394 353.04 189.21 350.629 190.842C348.288 192.402 346.018 194.991 343.819 198.609L332.647 188.926C335.626 183.89 339.421 180.095 344.032 177.542C348.643 174.988 353.927 173.711 359.886 173.711C365.064 173.711 369.532 174.669 373.292 176.584C377.122 178.499 380.066 181.23 382.123 184.777C384.251 188.323 385.315 192.473 385.315 197.226C385.315 200.205 384.925 202.971 384.145 205.525C383.364 208.007 382.088 210.49 380.314 212.973C378.612 215.385 376.307 218.045 373.398 220.953L353.395 240.85L332.754 240.637ZM332.754 250V240.637L346.905 235.742H386.805V250H332.754Z" fill="#2563EB"/>
<path d="M565.36 302.232C558.864 302.232 553.264 301.187 548.56 299.096C543.931 296.931 539.675 293.683 535.792 289.352L547.216 278.04C549.755 280.952 552.555 283.229 555.616 284.872C558.752 286.44 562.373 287.224 566.48 287.224C570.213 287.224 573.088 286.552 575.104 285.208C577.195 283.864 578.24 281.997 578.24 279.608C578.24 277.443 577.568 275.688 576.224 274.344C574.88 273 573.088 271.843 570.848 270.872C568.683 269.901 566.256 268.968 563.568 268.072C560.955 267.176 558.341 266.168 555.728 265.048C553.115 263.853 550.688 262.397 548.448 260.68C546.283 258.888 544.528 256.685 543.184 254.072C541.84 251.384 541.168 248.024 541.168 243.992C541.168 239.139 542.325 234.957 544.64 231.448C547.029 227.939 550.315 225.288 554.496 223.496C558.677 221.629 563.493 220.696 568.944 220.696C574.469 220.696 579.509 221.667 584.064 223.608C588.693 225.549 592.501 228.2 595.488 231.56L584.064 242.872C581.675 240.408 579.248 238.579 576.784 237.384C574.395 236.189 571.669 235.592 568.608 235.592C565.547 235.592 563.12 236.189 561.328 237.384C559.536 238.504 558.64 240.147 558.64 242.312C558.64 244.328 559.312 245.971 560.656 247.24C562 248.435 563.755 249.48 565.92 250.376C568.16 251.272 570.587 252.168 573.2 253.064C575.888 253.96 578.539 255.005 581.152 256.2C583.765 257.395 586.155 258.925 588.32 260.792C590.56 262.584 592.352 264.899 593.696 267.736C595.04 270.499 595.712 273.933 595.712 278.04C595.712 285.581 593.024 291.517 587.648 295.848C582.272 300.104 574.843 302.232 565.36 302.232ZM606.913 301V221.928H624.497V301H606.913ZM653.165 272.216V258.552H670.189C672.355 258.552 674.333 258.104 676.125 257.208C677.917 256.312 679.336 255.005 680.381 253.288C681.427 251.571 681.949 249.48 681.949 247.016C681.949 244.627 681.427 242.573 680.381 240.856C679.336 239.139 677.917 237.832 676.125 236.936C674.333 236.04 672.355 235.592 670.189 235.592H653.165V221.928H672.765C677.768 221.928 682.285 222.936 686.317 224.952C690.349 226.968 693.523 229.88 695.837 233.688C698.227 237.421 699.421 241.864 699.421 247.016C699.421 252.168 698.227 256.648 695.837 260.456C693.523 264.189 690.349 267.101 686.317 269.192C682.285 271.208 677.768 272.216 672.765 272.216H653.165ZM639.725 301V221.928H657.309V301H639.725ZM709.288 301V221.928H726.872V301H709.288ZM758.232 301V221.928H775.928V301H758.232ZM719.816 267.96V252.728H764.056V267.96H719.816ZM791.1 301V221.928H808.684V301H791.1ZM804.54 301V285.768H847.884V301H804.54ZM804.54 267.96V253.288H843.964V267.96H804.54ZM804.54 237.048V221.928H847.324V237.048H804.54ZM873.447 268.408V255.416H890.135C893.644 255.416 896.332 254.52 898.199 252.728C900.14 250.936 901.111 248.509 901.111 245.448C901.111 242.611 900.177 240.259 898.311 238.392C896.444 236.525 893.756 235.592 890.247 235.592H873.447V221.928H892.263C897.489 221.928 902.081 222.936 906.039 224.952C909.996 226.893 913.095 229.619 915.335 233.128C917.575 236.637 918.695 240.669 918.695 245.224C918.695 249.853 917.575 253.923 915.335 257.432C913.095 260.867 909.959 263.555 905.927 265.496C901.895 267.437 897.153 268.408 891.703 268.408H873.447ZM860.007 301V221.928H877.591V301H860.007ZM903.015 301L878.375 266.952L894.503 262.584L923.847 301H903.015ZM978.141 302.232C971.645 302.232 966.045 301.187 961.341 299.096C956.712 296.931 952.456 293.683 948.573 289.352L959.997 278.04C962.536 280.952 965.336 283.229 968.397 284.872C971.533 286.44 975.155 287.224 979.261 287.224C982.995 287.224 985.869 286.552 987.885 285.208C989.976 283.864 991.021 281.997 991.021 279.608C991.021 277.443 990.349 275.688 989.005 274.344C987.661 273 985.869 271.843 983.629 270.872C981.464 269.901 979.037 268.968 976.349 268.072C973.736 267.176 971.123 266.168 968.509 265.048C965.896 263.853 963.469 262.397 961.229 260.68C959.064 258.888 957.309 256.685 955.965 254.072C954.621 251.384 953.949 248.024 953.949 243.992C953.949 239.139 955.107 234.957 957.421 231.448C959.811 227.939 963.096 225.288 967.277 223.496C971.459 221.629 976.275 220.696 981.725 220.696C987.251 220.696 992.291 221.667 996.845 223.608C1001.47 225.549 1005.28 228.2 1008.27 231.56L996.845 242.872C994.456 240.408 992.029 238.579 989.565 237.384C987.176 236.189 984.451 235.592 981.389 235.592C978.328 235.592 975.901 236.189 974.109 237.384C972.317 238.504 971.421 240.147 971.421 242.312C971.421 244.328 972.093 245.971 973.437 247.24C974.781 248.435 976.536 249.48 978.701 250.376C980.941 251.272 983.368 252.168 985.981 253.064C988.669 253.96 991.32 255.005 993.933 256.2C996.547 257.395 998.936 258.925 1001.1 260.792C1003.34 262.584 1005.13 264.899 1006.48 267.736C1007.82 270.499 1008.49 273.933 1008.49 278.04C1008.49 285.581 1005.81 291.517 1000.43 295.848C995.053 300.104 987.624 302.232 978.141 302.232ZM1036.12 301V223.048H1053.7V301H1036.12ZM1011.37 237.272V221.928H1078.45V237.272H1011.37ZM1101.71 268.408V255.416H1118.4C1121.91 255.416 1124.6 254.52 1126.46 252.728C1128.41 250.936 1129.38 248.509 1129.38 245.448C1129.38 242.611 1128.44 240.259 1126.58 238.392C1124.71 236.525 1122.02 235.592 1118.51 235.592H1101.71V221.928H1120.53C1125.75 221.928 1130.35 222.936 1134.3 224.952C1138.26 226.893 1141.36 229.619 1143.6 233.128C1145.84 236.637 1146.96 240.669 1146.96 245.224C1146.96 249.853 1145.84 253.923 1143.6 257.432C1141.36 260.867 1138.22 263.555 1134.19 265.496C1130.16 267.437 1125.42 268.408 1119.97 268.408H1101.71ZM1088.27 301V221.928H1105.86V301H1088.27ZM1131.28 301L1106.64 266.952L1122.77 262.584L1152.11 301H1131.28ZM1159.8 301V221.928H1177.39V301H1159.8ZM1173.24 301V285.768H1216.59V301H1173.24ZM1173.24 267.96V253.288H1212.67V267.96H1173.24ZM1173.24 237.048V221.928H1216.03V237.048H1173.24ZM1228.71 301V221.928H1246.29V301H1228.71ZM1242.15 301V285.768H1285.49V301H1242.15ZM1242.15 267.96V253.288H1281.57V267.96H1242.15ZM1242.15 237.048V221.928H1284.93V237.048H1242.15ZM1314.59 301V223.048H1332.17V301H1314.59ZM1289.83 237.272V221.928H1356.92V237.272H1289.83Z" fill="#1A2744"/>
<path d="M733.936 378V344.688H738.448V378H733.936ZM746.311 378V344.688H749.479L750.823 349.92V378H746.311ZM769.351 378L748.903 350.688L749.479 344.688L769.975 371.952L769.351 378ZM769.351 378L768.007 373.056V344.688H772.519V378H769.351ZM791.285 378L777.941 344.688H782.837L793.829 372.864H792.053L803.141 344.688H807.989L794.549 378H791.285ZM813.436 378V344.688H817.948V378H813.436ZM816.508 378V373.872H835.612V378H816.508ZM816.508 362.928V358.992H834.028V362.928H816.508ZM816.508 348.816V344.688H835.372V348.816H816.508ZM850.169 378.48C847.545 378.48 845.305 378 843.449 377.04C841.593 376.08 839.945 374.688 838.505 372.864L841.577 369.792C842.633 371.264 843.849 372.384 845.225 373.152C846.601 373.888 848.297 374.256 850.313 374.256C852.297 374.256 853.881 373.824 855.065 372.96C856.281 372.096 856.889 370.912 856.889 369.408C856.889 368.16 856.601 367.152 856.025 366.384C855.449 365.616 854.665 364.992 853.673 364.512C852.713 364 851.657 363.552 850.505 363.168C849.353 362.752 848.201 362.32 847.049 361.872C845.897 361.392 844.841 360.816 843.881 360.144C842.921 359.44 842.137 358.528 841.529 357.408C840.953 356.288 840.665 354.88 840.665 353.184C840.665 351.296 841.113 349.696 842.009 348.384C842.937 347.04 844.185 346.016 845.753 345.312C847.353 344.576 849.145 344.208 851.129 344.208C853.305 344.208 855.257 344.64 856.985 345.504C858.713 346.336 860.121 347.44 861.209 348.816L858.137 351.888C857.145 350.736 856.073 349.872 854.921 349.296C853.801 348.72 852.505 348.432 851.033 348.432C849.241 348.432 847.817 348.832 846.761 349.632C845.705 350.4 845.177 351.488 845.177 352.896C845.177 354.016 845.465 354.928 846.041 355.632C846.649 356.304 847.433 356.88 848.393 357.36C849.353 357.84 850.409 358.288 851.561 358.704C852.745 359.088 853.913 359.52 855.065 360C856.217 360.48 857.273 361.088 858.233 361.824C859.193 362.56 859.961 363.52 860.537 364.704C861.145 365.856 861.449 367.312 861.449 369.072C861.449 372.016 860.425 374.32 858.377 375.984C856.361 377.648 853.625 378.48 850.169 378.48ZM874.815 378V345.648H879.327V378H874.815ZM863.487 348.816V344.688H890.607V348.816H863.487ZM895.983 378V344.688H899.151L913.263 367.872H911.103L925.215 344.688H928.383V378H923.871V352.608L924.927 352.896L913.791 371.184H910.623L899.487 352.896L900.495 352.608V378H895.983ZM936.249 378V344.688H940.761V378H936.249ZM939.321 378V373.872H958.425V378H939.321ZM939.321 362.928V358.992H956.841V362.928H939.321ZM939.321 348.816V344.688H958.185V348.816H939.321ZM964.561 378V344.688H967.729L969.073 349.92V378H964.561ZM987.601 378L967.153 350.688L967.729 344.688L988.225 371.952L987.601 378ZM987.601 378L986.257 373.056V344.688H990.769V378H987.601ZM1007.47 378V345.648H1011.98V378H1007.47ZM996.143 348.816V344.688H1023.26V348.816H996.143ZM1037.87 378V344.688H1042.39V378H1037.87ZM1040.95 363.36V359.232H1058.32V363.36H1040.95ZM1040.95 348.816V344.688H1059.14V348.816H1040.95ZM1077.54 378.48C1075.08 378.48 1072.87 377.936 1070.92 376.848C1069 375.728 1067.48 374.208 1066.36 372.288C1065.24 370.336 1064.68 368.128 1064.68 365.664V344.688H1069.19V365.568C1069.19 367.328 1069.56 368.848 1070.29 370.128C1071.03 371.408 1072.02 372.4 1073.27 373.104C1074.55 373.808 1075.97 374.16 1077.54 374.16C1079.17 374.16 1080.6 373.808 1081.81 373.104C1083.06 372.4 1084.04 371.408 1084.74 370.128C1085.48 368.848 1085.85 367.344 1085.85 365.616V344.688H1090.41V365.712C1090.41 368.176 1089.85 370.368 1088.73 372.288C1087.61 374.208 1086.09 375.728 1084.17 376.848C1082.25 377.936 1080.04 378.48 1077.54 378.48ZM1097.83 378V344.688H1100.99L1102.34 349.92V378H1097.83ZM1120.87 378L1100.42 350.688L1100.99 344.688L1121.49 371.952L1120.87 378ZM1120.87 378L1119.52 373.056V344.688H1124.03V378H1120.87ZM1134.88 378V373.872H1144.14C1146.61 373.872 1148.77 373.344 1150.62 372.288C1152.48 371.2 1153.92 369.712 1154.94 367.824C1156 365.936 1156.53 363.76 1156.53 361.296C1156.53 358.864 1156 356.704 1154.94 354.816C1153.89 352.928 1152.43 351.456 1150.58 350.4C1148.72 349.344 1146.58 348.816 1144.14 348.816H1134.93V344.688H1144.24C1146.67 344.688 1148.91 345.104 1150.96 345.936C1153.04 346.768 1154.83 347.936 1156.34 349.44C1157.87 350.944 1159.06 352.704 1159.89 354.72C1160.75 356.736 1161.18 358.944 1161.18 361.344C1161.18 363.712 1160.75 365.92 1159.89 367.968C1159.06 369.984 1157.89 371.744 1156.38 373.248C1154.88 374.752 1153.09 375.92 1151.01 376.752C1148.96 377.584 1146.74 378 1144.34 378H1134.88ZM1131.9 378V344.688H1136.42V378H1131.9Z" fill="#94A3B8"/>
</svg>
